<svg width="42" height="22" viewBox="0 0 42 22" fill="none" xmlns="http://www.w3.org/2000/svg">
<path fill-rule="evenodd" clip-rule="evenodd" d="M0 0H7.60744C13.0705 0 16.9704 5.234 16.9704 10.1689V11.7333C16.9704 16.6681 13.0705 21.9022 7.60744 21.9022H0V0ZM15.8001 10.1689C15.8001 5.71711 12.271 1.17333 7.60744 1.17333H1.17037V20.7289H7.60744C12.271 20.7289 15.8001 16.1851 15.8001 11.7333V10.1689Z" fill="#1E0606"/>
<path d="M19.5063 0H20.6766V20.8267H26.9186V22H19.5063V0Z" fill="#1E0606"/>
<path d="M28.4791 0V21.9022H29.6495V11.5852L29.9368 11.2972L40.3571 21.9022H42L30.7644 10.4675L41.2055 0H39.5504L29.6495 9.92589V0H28.4791Z" fill="#1E0606"/>
</svg>
